<?xml version="1.0" encoding="UTF-8"?>
<!--Generator: Apple Native CoreSVG 175-->
<!DOCTYPE svg
PUBLIC "-//W3C//DTD SVG 1.1//EN"
       "http://www.w3.org/Graphics/SVG/1.1/DTD/svg11.dtd">
<svg version="1.1" xmlns="http://www.w3.org/2000/svg" xmlns:xlink="http://www.w3.org/1999/xlink" width="3300" height="2200">
 <!--glyph: "uni100658.medium", point size: 100.0, font version: "17.1d1e1", template writer version: "65.1"-->
 <g id="Notes">
  <rect height="2200" id="artboard" style="fill:white;opacity:1" width="3300" x="0" y="0"/>
  <line style="fill:none;stroke:black;opacity:1;stroke-width:0.5;" x1="263" x2="3036" y1="292" y2="292"/>
  <text style="stroke:none;fill:black;font-family:sans-serif;font-size:13;font-weight:bold;" transform="matrix(1 0 0 1 263 322)">Weight/Scale Variations</text>
  <text style="stroke:none;fill:black;font-family:sans-serif;font-size:13;text-anchor:middle;" transform="matrix(1 0 0 1 559.711 322)">Ultralight</text>
  <text style="stroke:none;fill:black;font-family:sans-serif;font-size:13;text-anchor:middle;" transform="matrix(1 0 0 1 856.422 322)">Thin</text>
  <text style="stroke:none;fill:black;font-family:sans-serif;font-size:13;text-anchor:middle;" transform="matrix(1 0 0 1 1153.13 322)">Light</text>
  <text style="stroke:none;fill:black;font-family:sans-serif;font-size:13;text-anchor:middle;" transform="matrix(1 0 0 1 1449.84 322)">Regular</text>
  <text style="stroke:none;fill:black;font-family:sans-serif;font-size:13;text-anchor:middle;" transform="matrix(1 0 0 1 1746.56 322)">Medium</text>
  <text style="stroke:none;fill:black;font-family:sans-serif;font-size:13;text-anchor:middle;" transform="matrix(1 0 0 1 2043.27 322)">Semibold</text>
  <text style="stroke:none;fill:black;font-family:sans-serif;font-size:13;text-anchor:middle;" transform="matrix(1 0 0 1 2339.98 322)">Bold</text>
  <text style="stroke:none;fill:black;font-family:sans-serif;font-size:13;text-anchor:middle;" transform="matrix(1 0 0 1 2636.69 322)">Heavy</text>
  <text style="stroke:none;fill:black;font-family:sans-serif;font-size:13;text-anchor:middle;" transform="matrix(1 0 0 1 2933.4 322)">Black</text>
  <line style="fill:none;stroke:black;opacity:1;stroke-width:0.5;" x1="263" x2="3036" y1="1903" y2="1903"/>
  <g transform="matrix(1 0 0 1 263 1933)">
   <path d="M9.24805 0.830078Q10.8691 0.830078 12.2949 0.214844Q13.7207-0.400391 14.8096-1.49414Q15.8984-2.58789 16.5186-4.01367Q17.1387-5.43945 17.1387-7.05078Q17.1387-8.66211 16.5186-10.0879Q15.8984-11.5137 14.8047-12.6074Q13.7109-13.7012 12.2852-14.3164Q10.8594-14.9316 9.23828-14.9316Q7.62695-14.9316 6.20117-14.3164Q4.77539-13.7012 3.69141-12.6074Q2.60742-11.5137 1.9873-10.0879Q1.36719-8.66211 1.36719-7.05078Q1.36719-5.43945 1.9873-4.01367Q2.60742-2.58789 3.69629-1.49414Q4.78516-0.400391 6.21094 0.214844Q7.63672 0.830078 9.24805 0.830078ZM9.24805-0.654297Q7.91992-0.654297 6.7627-1.14746Q5.60547-1.64062 4.73145-2.51953Q3.85742-3.39844 3.36426-4.56055Q2.87109-5.72266 2.87109-7.05078Q2.87109-8.37891 3.35938-9.54102Q3.84766-10.7031 4.72168-11.582Q5.5957-12.4609 6.75293-12.9541Q7.91016-13.4473 9.23828-13.4473Q10.5762-13.4473 11.7334-12.9541Q12.8906-12.4609 13.7695-11.582Q14.6484-10.7031 15.1465-9.54102Q15.6445-8.37891 15.6445-7.05078Q15.6445-5.72266 15.1514-4.56055Q14.6582-3.39844 13.7842-2.51953Q12.9102-1.64062 11.748-1.14746Q10.5859-0.654297 9.24805-0.654297ZM5.6543-7.05078Q5.6543-6.72852 5.85938-6.52832Q6.06445-6.32812 6.40625-6.32812L8.51562-6.32812L8.51562-4.20898Q8.51562-3.88672 8.71094-3.67676Q8.90625-3.4668 9.23828-3.4668Q9.56055-3.4668 9.77051-3.67676Q9.98047-3.88672 9.98047-4.20898L9.98047-6.32812L12.0898-6.32812Q12.4219-6.32812 12.627-6.52832Q12.832-6.72852 12.832-7.05078Q12.832-7.38281 12.627-7.58789Q12.4219-7.79297 12.0898-7.79297L9.98047-7.79297L9.98047-9.90234Q9.98047-10.2344 9.77051-10.4443Q9.56055-10.6543 9.23828-10.6543Q8.90625-10.6543 8.71094-10.4443Q8.51562-10.2344 8.51562-9.90234L8.51562-7.79297L6.40625-7.79297Q6.06445-7.79297 5.85938-7.58789Q5.6543-7.38281 5.6543-7.05078Z"/>
  </g>
  <g transform="matrix(1 0 0 1 281.867 1933)">
   <path d="M11.709 2.91016Q13.75 2.91016 15.5518 2.12891Q17.3535 1.34766 18.7305-0.0292969Q20.1074-1.40625 20.8887-3.20801Q21.6699-5.00977 21.6699-7.05078Q21.6699-9.0918 20.8887-10.8936Q20.1074-12.6953 18.7305-14.0723Q17.3535-15.4492 15.5469-16.2305Q13.7402-17.0117 11.6992-17.0117Q9.6582-17.0117 7.85645-16.2305Q6.05469-15.4492 4.68262-14.0723Q3.31055-12.6953 2.5293-10.8936Q1.74805-9.0918 1.74805-7.05078Q1.74805-5.00977 2.5293-3.20801Q3.31055-1.40625 4.6875-0.0292969Q6.06445 1.34766 7.86621 2.12891Q9.66797 2.91016 11.709 2.91016ZM11.709 1.25Q9.98047 1.25 8.47656 0.605469Q6.97266-0.0390625 5.83496-1.17676Q4.69727-2.31445 4.05762-3.81836Q3.41797-5.32227 3.41797-7.05078Q3.41797-8.7793 4.05762-10.2832Q4.69727-11.7871 5.83008-12.9297Q6.96289-14.0723 8.4668-14.7119Q9.9707-15.3516 11.6992-15.3516Q13.4277-15.3516 14.9316-14.7119Q16.4355-14.0723 17.5781-12.9297Q18.7207-11.7871 19.3652-10.2832Q20.0098-8.7793 20.0098-7.05078Q20.0098-5.32227 19.3701-3.81836Q18.7305-2.31445 17.5928-1.17676Q16.4551-0.0390625 14.9463 0.605469Q13.4375 1.25 11.709 1.25ZM7.17773-7.05078Q7.17773-6.69922 7.41211-6.47461Q7.64648-6.25 8.01758-6.25L10.8887-6.25L10.8887-3.36914Q10.8887-2.99805 11.1133-2.76855Q11.3379-2.53906 11.6895-2.53906Q12.0605-2.53906 12.29-2.76855Q12.5195-2.99805 12.5195-3.36914L12.5195-6.25L15.4004-6.25Q15.7715-6.25 16.001-6.47461Q16.2305-6.69922 16.2305-7.05078Q16.2305-7.42188 16.001-7.65137Q15.7715-7.88086 15.4004-7.88086L12.5195-7.88086L12.5195-10.752Q12.5195-11.1328 12.29-11.3623Q12.0605-11.5918 11.6895-11.5918Q11.3379-11.5918 11.1133-11.3574Q10.8887-11.123 10.8887-10.752L10.8887-7.88086L8.01758-7.88086Q7.63672-7.88086 7.40723-7.65137Q7.17773-7.42188 7.17773-7.05078Z"/>
  </g>
  <g transform="matrix(1 0 0 1 305.646 1933)">
   <path d="M14.9707 5.66406Q17.0605 5.66406 18.96 5.01465Q20.8594 4.36523 22.4512 3.19336Q24.043 2.02148 25.2197 0.429688Q26.3965-1.16211 27.0459-3.06641Q27.6953-4.9707 27.6953-7.05078Q27.6953-9.14062 27.0459-11.04Q26.3965-12.9395 25.2197-14.5312Q24.043-16.123 22.4512-17.2998Q20.8594-18.4766 18.9551-19.126Q17.0508-19.7754 14.9609-19.7754Q12.8711-19.7754 10.9717-19.126Q9.07227-18.4766 7.48535-17.2998Q5.89844-16.123 4.72168-14.5312Q3.54492-12.9395 2.90039-11.04Q2.25586-9.14062 2.25586-7.05078Q2.25586-4.9707 2.90527-3.06641Q3.55469-1.16211 4.72656 0.429688Q5.89844 2.02148 7.49023 3.19336Q9.08203 4.36523 10.9814 5.01465Q12.8809 5.66406 14.9707 5.66406ZM14.9707 3.84766Q13.1641 3.84766 11.5283 3.2959Q9.89258 2.74414 8.53516 1.74805Q7.17773 0.751953 6.17676-0.610352Q5.17578-1.97266 4.62891-3.6084Q4.08203-5.24414 4.08203-7.05078Q4.08203-8.86719 4.62891-10.5029Q5.17578-12.1387 6.17188-13.501Q7.16797-14.8633 8.52539-15.8594Q9.88281-16.8555 11.5186-17.4023Q13.1543-17.9492 14.9609-17.9492Q16.7773-17.9492 18.4131-17.4023Q20.0488-16.8555 21.4111-15.8594Q22.7734-14.8633 23.7695-13.501Q24.7656-12.1387 25.3174-10.5029Q25.8691-8.86719 25.8691-7.05078Q25.8789-5.24414 25.332-3.6084Q24.7852-1.97266 23.7842-0.610352Q22.7832 0.751953 21.4209 1.74805Q20.0586 2.74414 18.4229 3.2959Q16.7871 3.84766 14.9707 3.84766ZM9.19922-7.05078Q9.19922-6.66992 9.45801-6.4209Q9.7168-6.17188 10.1172-6.17188L14.0625-6.17188L14.0625-2.2168Q14.0625-1.81641 14.3115-1.55762Q14.5605-1.29883 14.9512-1.29883Q15.3516-1.29883 15.6104-1.55273Q15.8691-1.80664 15.8691-2.2168L15.8691-6.17188L19.8242-6.17188Q20.2246-6.17188 20.4785-6.4209Q20.7324-6.66992 20.7324-7.05078Q20.7324-7.46094 20.4785-7.71484Q20.2246-7.96875 19.8242-7.96875L15.8691-7.96875L15.8691-11.9141Q15.8691-12.3242 15.6104-12.583Q15.3516-12.8418 14.9512-12.8418Q14.5605-12.8418 14.3115-12.583Q14.0625-12.3242 14.0625-11.9141L14.0625-7.96875L10.1172-7.96875Q9.70703-7.96875 9.45312-7.71484Q9.19922-7.46094 9.19922-7.05078Z"/>
  </g>
  <text style="stroke:none;fill:black;font-family:sans-serif;font-size:13;font-weight:bold;" transform="matrix(1 0 0 1 263 1953)">Design Variations</text>
  <text style="stroke:none;fill:black;font-family:sans-serif;font-size:13;" transform="matrix(1 0 0 1 263 1971)">Symbols are supported in up to nine weights and three scales.</text>
  <text style="stroke:none;fill:black;font-family:sans-serif;font-size:13;" transform="matrix(1 0 0 1 263 1989)">For optimal layout with text and other symbols, vertically align</text>
  <text style="stroke:none;fill:black;font-family:sans-serif;font-size:13;" transform="matrix(1 0 0 1 263 2007)">symbols with the adjacent text.</text>
  <line style="fill:none;stroke:#00AEEF;stroke-width:0.5;opacity:1.0;" x1="776" x2="776" y1="1919" y2="1933"/>
  <g transform="matrix(1 0 0 1 776 1933)">
   <path d="M3.31055 0.15625Q3.70117 0.15625 3.91602-0.00976562Q4.13086-0.175781 4.26758-0.585938L5.52734-4.0332L11.2891-4.0332L12.5488-0.585938Q12.6855-0.175781 12.9004-0.00976562Q13.1152 0.15625 13.4961 0.15625Q13.8867 0.15625 14.1162-0.0585938Q14.3457-0.273438 14.3457-0.644531Q14.3457-0.869141 14.2383-1.17188L9.6582-13.3691Q9.48242-13.8184 9.17969-14.043Q8.87695-14.2676 8.4082-14.2676Q7.5-14.2676 7.17773-13.3789L2.59766-1.16211Q2.49023-0.859375 2.49023-0.634766Q2.49023-0.263672 2.70996-0.0537109Q2.92969 0.15625 3.31055 0.15625ZM6.00586-5.51758L8.37891-12.0898L8.42773-12.0898L10.8008-5.51758Z"/>
  </g>
  <line style="fill:none;stroke:#00AEEF;stroke-width:0.5;opacity:1.0;" x1="793.197" x2="793.197" y1="1919" y2="1933"/>
  <text style="stroke:none;fill:black;font-family:sans-serif;font-size:13;font-weight:bold;" transform="matrix(1 0 0 1 776 1953)">Margins</text>
  <text style="stroke:none;fill:black;font-family:sans-serif;font-size:13;" transform="matrix(1 0 0 1 776 1971)">Leading and trailing margins on the left and right side of each symbol</text>
  <text style="stroke:none;fill:black;font-family:sans-serif;font-size:13;" transform="matrix(1 0 0 1 776 1989)">can be adjusted by modifying the x-location of the margin guidelines.</text>
  <text style="stroke:none;fill:black;font-family:sans-serif;font-size:13;" transform="matrix(1 0 0 1 776 2007)">Modifications are automatically applied proportionally to all</text>
  <text style="stroke:none;fill:black;font-family:sans-serif;font-size:13;" transform="matrix(1 0 0 1 776 2025)">scales and weights.</text>
  <g transform="matrix(1 0 0 1 1289 1933)">
   <path d="M2.8418 1.86523L4.54102 3.57422Q5.18555 4.22852 5.90332 4.17969Q6.62109 4.13086 7.31445 3.35938L18.0078-8.42773L17.041-9.4043L6.42578 2.27539Q6.16211 2.57812 5.89355 2.61719Q5.625 2.65625 5.27344 2.30469L4.10156 1.14258Q3.75 0.791016 3.79395 0.522461Q3.83789 0.253906 4.14062-0.0195312L15.6152-10.8203L14.6387-11.7871L3.04688-0.898438Q2.30469-0.214844 2.25098 0.498047Q2.19727 1.21094 2.8418 1.86523ZM9.25781-16.3281Q8.94531-16.0254 8.90625-15.6348Q8.86719-15.2441 9.04297-14.9512Q9.21875-14.6777 9.55566-14.541Q9.89258-14.4043 10.3809-14.5215Q11.4746-14.7754 12.5977-14.7314Q13.7207-14.6875 14.7949-13.9844L14.209-12.5293Q13.9551-11.9043 14.0674-11.4404Q14.1797-10.9766 14.5801-10.5664L16.875-8.25195Q17.2363-7.88086 17.5781-7.82227Q17.9199-7.76367 18.3398-7.8418L19.4043-8.03711L20.0684-7.36328L20.0293-6.80664Q20-6.43555 20.1221-6.12305Q20.2441-5.81055 20.6055-5.44922L21.3672-4.70703Q21.7285-4.3457 22.1533-4.33105Q22.5781-4.31641 22.9297-4.66797L25.8398-7.58789Q26.1914-7.93945 26.1816-8.35449Q26.1719-8.76953 25.8105-9.13086L25.0391-9.89258Q24.6875-10.2539 24.3799-10.3857Q24.0723-10.5176 23.7109-10.4883L23.1348-10.4395L22.4902-11.0742L22.7344-12.1973Q22.832-12.6172 22.6953-12.9834Q22.5586-13.3496 22.1191-13.7891L19.9219-15.9766Q18.6719-17.2168 17.2607-17.8369Q15.8496-18.457 14.4189-18.4814Q12.9883-18.5059 11.665-17.959Q10.3418-17.4121 9.25781-16.3281ZM10.752-15.957Q11.6602-16.6211 12.7002-16.9043Q13.7402-17.1875 14.8047-17.085Q15.8691-16.9824 16.8701-16.5137Q17.8711-16.0449 18.7012-15.2051L21.1328-12.793Q21.3086-12.6172 21.3525-12.4512Q21.3965-12.2852 21.3379-12.0312L21.0156-10.5469L22.5195-9.0625L23.5059-9.12109Q23.6914-9.13086 23.7891-9.09668Q23.8867-9.0625 24.0332-8.91602L24.6094-8.33984L22.168-5.89844L21.5918-6.47461Q21.4453-6.62109 21.4062-6.71875Q21.3672-6.81641 21.377-7.01172L21.4453-7.98828L19.9512-9.47266L18.4277-9.21875Q18.1836-9.16992 18.042-9.2041Q17.9004-9.23828 17.7148-9.41406L15.7129-11.416Q15.5176-11.5918 15.4932-11.7529Q15.4688-11.9141 15.5859-12.1875L16.4648-14.2773Q15.293-15.3711 13.8281-15.791Q12.3633-16.2109 10.8398-15.7617Q10.7227-15.7324 10.6885-15.8057Q10.6543-15.8789 10.752-15.957Z"/>
  </g>
  <text style="stroke:none;fill:black;font-family:sans-serif;font-size:13;font-weight:bold;" transform="matrix(1 0 0 1 1289 1953)">Exporting</text>
  <text style="stroke:none;fill:black;font-family:sans-serif;font-size:13;" transform="matrix(1 0 0 1 1289 1971)">Symbols should be outlined when exporting to ensure the</text>
  <text style="stroke:none;fill:black;font-family:sans-serif;font-size:13;" transform="matrix(1 0 0 1 1289 1989)">design is preserved when submitting to Xcode.</text>
  <text id="template-version" style="stroke:none;fill:black;font-family:sans-serif;font-size:13;text-anchor:end;" transform="matrix(1 0 0 1 3036 1933)">Template v.3.0</text>
  <text style="stroke:none;fill:black;font-family:sans-serif;font-size:13;text-anchor:end;" transform="matrix(1 0 0 1 3036 1951)">Requires Xcode 13 or greater</text>
  <text id="descriptive-name" style="stroke:none;fill:black;font-family:sans-serif;font-size:13;text-anchor:end;" transform="matrix(1 0 0 1 3036 1969)">Generated from car</text>
  <text style="stroke:none;fill:black;font-family:sans-serif;font-size:13;text-anchor:end;" transform="matrix(1 0 0 1 3036 1987)">Typeset at 100 points</text>
  <text style="stroke:none;fill:black;font-family:sans-serif;font-size:13;" transform="matrix(1 0 0 1 263 726)">Small</text>
  <text style="stroke:none;fill:black;font-family:sans-serif;font-size:13;" transform="matrix(1 0 0 1 263 1156)">Medium</text>
  <text style="stroke:none;fill:black;font-family:sans-serif;font-size:13;" transform="matrix(1 0 0 1 263 1586)">Large</text>
 </g>
 <g id="Guides">
  <g id="H-reference" style="fill:#27AAE1;stroke:none;" transform="matrix(1 0 0 1 339 696)">
   <path d="M0.993347 0L3.6377 0L29.3282-67.1326L30.0301-67.1326L30.0301-70.459L28.1227-70.459ZM11.6882-24.4797L46.9818-24.4797L46.2311-26.7288L12.4382-26.7288ZM55.1193 0L57.7637 0L30.6381-70.459L29.4327-70.459L29.4327-67.1326Z"/>
  </g>
  <line id="Baseline-S" style="fill:none;stroke:#27AAE1;opacity:1;stroke-width:0.5;" x1="263" x2="3036" y1="696" y2="696"/>
  <line id="Capline-S" style="fill:none;stroke:#27AAE1;opacity:1;stroke-width:0.5;" x1="263" x2="3036" y1="625.541" y2="625.541"/>
  <g id="H-reference" style="fill:#27AAE1;stroke:none;" transform="matrix(1 0 0 1 339 1126)">
   <path d="M0.993347 0L3.6377 0L29.3282-67.1326L30.0301-67.1326L30.0301-70.459L28.1227-70.459ZM11.6882-24.4797L46.9818-24.4797L46.2311-26.7288L12.4382-26.7288ZM55.1193 0L57.7637 0L30.6381-70.459L29.4327-70.459L29.4327-67.1326Z"/>
  </g>
  <line id="Baseline-M" style="fill:none;stroke:#27AAE1;opacity:1;stroke-width:0.5;" x1="263" x2="3036" y1="1126" y2="1126"/>
  <line id="Capline-M" style="fill:none;stroke:#27AAE1;opacity:1;stroke-width:0.5;" x1="263" x2="3036" y1="1055.54" y2="1055.54"/>
  <g id="H-reference" style="fill:#27AAE1;stroke:none;" transform="matrix(1 0 0 1 339 1556)">
   <path d="M0.993347 0L3.6377 0L29.3282-67.1326L30.0301-67.1326L30.0301-70.459L28.1227-70.459ZM11.6882-24.4797L46.9818-24.4797L46.2311-26.7288L12.4382-26.7288ZM55.1193 0L57.7637 0L30.6381-70.459L29.4327-70.459L29.4327-67.1326Z"/>
  </g>
  <line id="Baseline-L" style="fill:none;stroke:#27AAE1;opacity:1;stroke-width:0.5;" x1="263" x2="3036" y1="1556" y2="1556"/>
  <line id="Capline-L" style="fill:none;stroke:#27AAE1;opacity:1;stroke-width:0.5;" x1="263" x2="3036" y1="1485.54" y2="1485.54"/>
  <line id="left-margin-Ultralight-S" style="fill:none;stroke:#00AEEF;stroke-width:0.5;opacity:1.0;" x1="506.85" x2="506.85" y1="600.785" y2="720.121"/>
  <line id="right-margin-Ultralight-S" style="fill:none;stroke:#00AEEF;stroke-width:0.5;opacity:1.0;" x1="612.572" x2="612.572" y1="600.785" y2="720.121"/>
  <line id="left-margin-Regular-S" style="fill:none;stroke:#00AEEF;stroke-width:0.5;opacity:1.0;" x1="1394.33" x2="1394.33" y1="600.785" y2="720.121"/>
  <line id="right-margin-Regular-S" style="fill:none;stroke:#00AEEF;stroke-width:0.5;opacity:1.0;" x1="1505.36" x2="1505.36" y1="600.785" y2="720.121"/>
  <line id="left-margin-Black-S" style="fill:none;stroke:#00AEEF;stroke-width:0.5;opacity:1.0;" x1="2873.24" x2="2873.24" y1="600.785" y2="720.121"/>
  <line id="right-margin-Black-S" style="fill:none;stroke:#00AEEF;stroke-width:0.5;opacity:1.0;" x1="2993.56" x2="2993.56" y1="600.785" y2="720.121"/>
 </g>
 <g id="Symbols">
  <g id="Black-S" transform="matrix(1 0 0 1 2873.24 696)">
   <path d="M33.8379-53.125Q33.3984-51.3184 34.2041-50.1953Q35.0098-49.0723 37.0117-49.1211Q38.7207-49.1699 41.5283-49.2432Q44.3359-49.3164 48.8525-49.3896Q53.3691-49.4629 60.1562-49.4629Q66.9434-49.4629 71.46-49.3896Q75.9766-49.3164 78.8086-49.2432Q81.6406-49.1699 83.3008-49.1211Q85.3027-49.0723 86.1084-50.1953Q86.9141-51.3184 86.4746-53.125Q86.1328-54.541 85.5469-56.3232Q84.9609-58.1055 84.5703-58.9355Q83.5938-61.0352 82.0801-61.9385Q80.5664-62.8418 78.0273-63.1836Q76.709-63.3789 72.1924-63.4521Q67.6758-63.5254 60.1562-63.5254Q52.6367-63.5254 48.1201-63.4521Q43.6035-63.3789 42.2852-63.1836Q39.7461-62.8418 38.2568-61.9385Q36.7676-61.0352 35.7422-58.9355Q35.3516-58.1055 34.79-56.3232Q34.2285-54.541 33.8379-53.125ZM32.0801-22.4121Q35.3027-22.4121 37.4756-24.585Q39.6484-26.7578 39.6484-29.9805Q39.6484-33.2031 37.4756-35.376Q35.3027-37.5488 32.0801-37.5488Q28.8574-37.5488 26.6846-35.376Q24.5117-33.2031 24.5117-29.9805Q24.5117-26.7578 26.6846-24.585Q28.8574-22.4121 32.0801-22.4121ZM48.8281-24.4141L71.4844-24.4141Q73.9258-24.4141 75.4883-26.001Q77.0508-27.5879 77.0508-29.9805Q77.0508-32.4219 75.4883-33.9844Q73.9258-35.5469 71.4844-35.5469L48.8281-35.5469Q46.4355-35.5469 44.8486-33.9844Q43.2617-32.4219 43.2617-29.9805Q43.2617-27.5879 44.8486-26.001Q46.4355-24.4141 48.8281-24.4141ZM88.2324-22.4121Q91.4551-22.4121 93.6279-24.585Q95.8008-26.7578 95.8008-29.9805Q95.8008-33.2031 93.6279-35.376Q91.4551-37.5488 88.2324-37.5488Q85.0098-37.5488 82.8369-35.376Q80.6641-33.2031 80.6641-29.9805Q80.6641-26.7578 82.8369-24.585Q85.0098-22.4121 88.2324-22.4121ZM60.1562-7.71484Q65.4297-7.71484 71.0938-7.83691Q76.7578-7.95898 82.0801-8.1543Q87.4023-8.34961 91.7969-8.64258Q96.1914-8.93555 98.9746-9.22852Q104.346-9.86328 107.446-13.0859Q110.547-16.3086 110.547-21.4844L110.547-28.2227Q110.547-34.2773 109.692-38.1592Q108.838-42.041 105.811-45.5078L101.709-50.1953Q100.977-53.6621 99.9756-57.0068Q98.9746-60.3516 97.998-63.0371Q97.0215-65.7227 96.3379-67.1387Q94.4336-71.1914 90.918-73.6328Q87.4023-76.0742 82.7148-76.709Q80.9082-76.9531 77.8076-77.124Q74.707-77.2949 70.3125-77.3926Q65.918-77.4902 60.1562-77.4902Q54.4434-77.4902 50.0244-77.3926Q45.6055-77.2949 42.5293-77.124Q39.4531-76.9531 37.5977-76.709Q32.9102-76.0742 29.3701-73.6328Q25.8301-71.1914 23.9746-67.1387Q23.3398-65.7227 22.3389-63.0371Q21.3379-60.3516 20.3369-57.0068Q19.3359-53.6621 18.6035-50.1953L14.502-45.5078Q11.4746-42.041 10.6201-38.1592Q9.76562-34.2773 9.76562-28.2227L9.76562-21.4844Q9.76562-16.3086 12.8662-13.0859Q15.9668-9.86328 21.3379-9.22852Q24.1211-8.93555 28.5156-8.64258Q32.9102-8.34961 38.2324-8.1543Q43.5547-7.95898 49.2188-7.83691Q54.8828-7.71484 60.1562-7.71484ZM60.1562-19.1406Q55.0293-19.1406 49.9268-19.2627Q44.8242-19.3848 40.1855-19.5801Q35.5469-19.7754 31.7627-20.0439Q27.9785-20.3125 25.4883-20.5566Q23.0469-20.8008 21.875-21.9727Q20.7031-23.1445 20.7031-25.3906L20.7031-30.1758Q20.7031-33.7891 21.6553-35.8887Q22.6074-37.9883 23.7305-39.502L28.8086-46.2402Q29.1504-47.8516 29.9072-50.8545Q30.6641-53.8574 31.5918-56.8359Q32.5195-59.8145 33.252-61.3281Q34.375-63.5742 36.1572-64.5996Q37.9395-65.625 40.0391-65.918Q42.5293-66.3086 47.4121-66.4795Q52.2949-66.6504 60.1562-66.6504Q68.0176-66.6504 72.9004-66.4307Q77.7832-66.2109 80.2734-65.918Q82.3242-65.6738 84.1064-64.5996Q85.8887-63.5254 87.1094-61.1816Q87.793-59.8633 88.6719-56.958Q89.5508-54.0527 90.3564-51.0254Q91.1621-47.998 91.5039-46.2402L96.582-39.502Q97.7051-37.9883 98.6572-35.8887Q99.6094-33.7891 99.6094-30.1758L99.6094-25.3906Q99.6094-23.1445 98.4375-21.9727Q97.2656-20.8008 94.8242-20.5566Q92.334-20.3125 88.5498-20.0439Q84.7656-19.7754 80.127-19.5801Q75.4883-19.3848 70.3857-19.2627Q65.2832-19.1406 60.1562-19.1406ZM17.3828 3.07617L22.4609 3.07617Q24.8535 3.07617 26.4893 1.44043Q28.125-0.195312 28.125-2.58789L28.125-13.2812L11.7188-19.043L11.7188-2.58789Q11.7188-0.195312 13.3545 1.44043Q14.9902 3.07617 17.3828 3.07617ZM97.8516 3.07617L102.93 3.07617Q105.322 3.07617 106.958 1.44043Q108.594-0.195312 108.594-2.58789L108.594-19.043L92.1875-13.2812L92.1875-2.58789Q92.1875-0.195312 93.8232 1.44043Q95.459 3.07617 97.8516 3.07617Z"/>
  </g>
  <g id="Regular-S" transform="matrix(1 0 0 1 1394.33 696)">
   <path d="M28.6621-46.7285Q28.418-45.6543 28.8574-45.2637Q29.2969-44.873 30.4199-44.9219Q33.3984-45.1172 36.9629-45.2881Q40.5273-45.459 45.0684-45.5811Q49.6094-45.7031 55.5176-45.7031Q61.4258-45.7031 65.9668-45.5811Q70.5078-45.459 74.0723-45.2881Q77.6367-45.1172 80.6152-44.9219Q81.7383-44.873 82.1777-45.2637Q82.6172-45.6543 82.373-46.7285Q81.7383-49.5605 80.5908-53.0029Q79.4434-56.4453 78.5156-58.0078Q77.832-59.2285 77.002-59.7656Q76.1719-60.3027 74.9023-60.498Q72.8516-60.791 68.1152-60.9863Q63.3789-61.1816 55.5176-61.1816Q47.6074-61.1816 42.8955-60.9863Q38.1836-60.791 36.1328-60.498Q34.8145-60.3027 34.0088-59.7656Q33.2031-59.2285 32.4707-58.0078Q31.5918-56.4453 30.4443-53.0029Q29.2969-49.5605 28.6621-46.7285ZM27.9297-20.5566Q30.6641-20.5566 32.5195-22.4121Q34.375-24.2676 34.375-27.002Q34.375-29.7363 32.5195-31.5918Q30.6641-33.4473 27.9297-33.4473Q25.1953-33.4473 23.3398-31.5918Q21.4844-29.7363 21.4844-27.002Q21.4844-24.2676 23.3398-22.4121Q25.1953-20.5566 27.9297-20.5566ZM45.2148-22.2656L65.8203-22.2656Q67.8711-22.2656 69.165-23.584Q70.459-24.9023 70.459-26.9531Q70.459-29.0039 69.165-30.2979Q67.8711-31.5918 65.8203-31.5918L45.2148-31.5918Q43.1641-31.5918 41.8701-30.2979Q40.5762-29.0039 40.5762-26.9531Q40.5762-24.9023 41.8701-23.584Q43.1641-22.2656 45.2148-22.2656ZM83.1055-20.5566Q85.8398-20.5566 87.6953-22.4121Q89.5508-24.2676 89.5508-27.002Q89.5508-29.7363 87.6953-31.5918Q85.8398-33.4473 83.1055-33.4473Q80.3711-33.4473 78.5156-31.5918Q76.6602-29.7363 76.6602-27.002Q76.6602-24.2676 78.5156-22.4121Q80.3711-20.5566 83.1055-20.5566ZM55.5176-10.3027Q60.4004-10.3027 65.7959-10.4004Q71.1914-10.498 76.3672-10.6934Q81.543-10.8887 85.8643-11.1572Q90.1855-11.4258 92.9199-11.7676Q96.9238-12.207 99.0967-14.4287Q101.27-16.6504 101.27-20.4102L101.27-27.1484Q101.27-31.9336 100.195-35.1807Q99.1211-38.4277 96.3379-41.9922L93.1641-46.1426Q92.4316-49.5605 91.4551-52.9297Q90.4785-56.2988 89.502-58.9844Q88.5254-61.6699 87.8906-63.0859Q86.3281-66.3086 83.4229-68.2861Q80.5176-70.2637 76.5625-70.8008Q75.2441-70.9961 72.2412-71.1182Q69.2383-71.2402 64.917-71.2891Q60.5957-71.3379 55.5176-71.3379Q50.3906-71.3379 46.0938-71.2646Q41.7969-71.1914 38.7695-71.0693Q35.7422-70.9473 34.4727-70.8008Q30.5176-70.3613 27.5879-68.335Q24.6582-66.3086 23.1445-63.0859Q22.4609-61.6699 21.5088-58.9844Q20.5566-56.2988 19.5557-52.9297Q18.5547-49.5605 17.8711-46.1426L14.6973-41.9922Q11.9141-38.4277 10.8398-35.1807Q9.76562-31.9336 9.76562-27.1484L9.76562-20.4102Q9.76562-16.6504 11.9141-14.4287Q14.0625-12.207 18.1152-11.7676Q20.8496-11.4258 25.1709-11.1572Q29.4922-10.8887 34.668-10.6934Q39.8438-10.498 45.2393-10.4004Q50.6348-10.3027 55.5176-10.3027ZM55.5176-15.918Q50.5371-15.918 45.1904-16.0156Q39.8438-16.1133 34.8633-16.3086Q29.8828-16.5039 25.9033-16.748Q21.9238-16.9922 19.7266-17.2363Q17.334-17.5781 16.3818-18.8477Q15.4297-20.1172 15.4297-22.2656L15.4297-27.1484Q15.4297-31.0547 16.2109-33.374Q16.9922-35.6934 19.1406-38.5254L23.1445-43.7012Q23.6328-46.3379 24.5117-49.5605Q25.3906-52.7832 26.416-55.7129Q27.4414-58.6426 28.2715-60.498Q29.1504-62.4023 30.8838-63.5742Q32.6172-64.7461 35.1562-65.0391Q37.0117-65.2344 42.4316-65.4785Q47.8516-65.7227 55.5176-65.7227Q63.1836-65.7227 68.6523-65.4785Q74.1211-65.2344 75.7812-65.0391Q78.418-64.6973 80.127-63.5254Q81.8359-62.3535 82.7637-60.498Q83.6426-58.6426 84.6436-55.7129Q85.6445-52.7832 86.5234-49.5605Q87.4023-46.3379 87.8906-43.7012L91.8457-38.5254Q94.043-35.6934 94.8242-33.374Q95.6055-31.0547 95.6055-27.1484L95.6055-22.2656Q95.6055-20.1172 94.6533-18.8232Q93.7012-17.5293 91.3086-17.2363Q89.1113-16.9922 85.1318-16.748Q81.1523-16.5039 76.1475-16.333Q71.1426-16.1621 65.7959-16.04Q60.4492-15.918 55.5176-15.918ZM16.8457 0.390625L21.4355 0.390625Q23.6328 0.390625 25.1221-1.07422Q26.6113-2.53906 26.6113-4.6875L26.6113-14.2578L11.7188-16.4551L11.7188-4.6875Q11.7188-2.53906 13.208-1.07422Q14.6973 0.390625 16.8457 0.390625ZM89.5996 0.390625L94.1406 0.390625Q96.3379 0.390625 97.8271-1.07422Q99.3164-2.53906 99.3164-4.6875L99.3164-16.4551L84.4238-14.2578L84.4238-4.6875Q84.4238-2.53906 85.9131-1.07422Q87.4023 0.390625 89.5996 0.390625Z"/>
  </g>
  <g id="Ultralight-S" transform="matrix(1 0 0 1 506.85 696)">
   <path d="M23.5764-46.6377Q23.423-45.9724 23.7034-45.4456Q23.9838-44.9188 25.016-44.9677Q28.4485-45.208 32.2174-45.3789Q35.9863-45.5498 40.9359-45.6264Q45.8855-45.7031 52.8839-45.7031Q59.8366-45.7031 64.7861-45.6264Q69.7357-45.5498 73.5046-45.3789Q77.2736-45.208 80.706-44.9677Q81.7383-44.9188 82.0415-45.4456Q82.3448-45.9724 82.1915-46.6377Q81.2386-50.7866 80.114-54.0474Q78.9894-57.3082 78.0617-58.8707Q77.1507-60.4546 75.7305-61.491Q74.3103-62.5275 71.9963-62.8143Q69.6732-63.1073 64.7095-63.2343Q59.7458-63.3614 52.8839-63.3614Q46.0182-63.3614 41.0339-63.2343Q36.0497-63.1073 33.7715-62.8143Q31.4545-62.5275 30.0129-61.491Q28.5713-60.4546 27.7023-58.8707Q26.8234-57.3082 25.6535-54.0474Q24.4835-50.7866 23.5764-46.6377ZM25.296-21.283Q27.3491-21.283 28.7277-22.6616Q30.1064-24.0402 30.1064-26.1391Q30.1064-28.1921 28.7277-29.5708Q27.3491-30.9494 25.296-30.9494Q23.1972-30.9494 21.8414-29.5708Q20.4857-28.1921 20.4857-26.1391Q20.4857-24.0402 21.8414-22.6616Q23.1972-21.283 25.296-21.283ZM43.5349-21.8117L62.1872-21.8117Q63.739-21.8117 64.6694-22.744Q65.5998-23.6763 65.5998-25.1823Q65.5998-26.7334 64.6694-27.6642Q63.739-28.595 62.1872-28.595L43.5349-28.595Q42.0288-28.595 41.098-27.6642Q40.1672-26.7334 40.1672-25.1823Q40.1672-23.6763 41.098-22.744Q42.0288-21.8117 43.5349-21.8117ZM80.4718-21.283Q82.5249-21.283 83.9035-22.6616Q85.2821-24.0402 85.2821-26.1391Q85.2821-28.1921 83.9035-29.5708Q82.5249-30.9494 80.4718-30.9494Q78.373-30.9494 77.0172-29.5708Q75.6615-28.1921 75.6615-26.1391Q75.6615-24.0402 77.0172-22.6616Q78.373-21.283 80.4718-21.283ZM52.8839-10.7117Q57.4036-10.7117 62.5946-10.8318Q67.7856-10.952 72.8706-11.1473Q77.9556-11.3426 82.2086-11.6112Q86.4616-11.8797 89.151-12.1765Q92.3378-12.5702 94.1471-14.2017Q95.9564-15.8333 95.9564-19.0933L95.9564-25.8316Q95.9564-31.0257 94.746-33.9321Q93.5356-36.8385 91.4337-39.6309L88.0325-44.0536Q87.3459-47.5174 86.3693-50.8865Q85.3928-54.2557 84.4162-56.9412Q83.4396-59.6268 82.8049-60.997Q81.2874-64.1747 78.5866-65.7433Q75.8858-67.3119 72.7936-67.7582Q71.4752-67.9085 68.3815-68.0305Q65.2878-68.1526 61.1935-68.224Q57.0992-68.2953 52.8839-68.2953Q48.6198-68.2953 44.5499-68.222Q40.48-68.1488 37.3619-68.0267Q34.2438-67.9047 32.9285-67.7582Q29.8363-67.3187 27.1564-65.7467Q24.4766-64.1747 22.963-60.997Q22.2794-59.6268 21.3272-56.9412Q20.3751-54.2557 19.3966-50.8865Q18.4181-47.5174 17.7345-44.0536L14.3341-39.6309Q12.1864-36.8385 10.976-33.9321Q9.76562-31.0257 9.76562-25.8316L9.76562-19.0933Q9.76562-15.8333 11.5963-14.2017Q13.427-12.5702 16.571-12.1765Q19.2604-11.8797 23.5363-11.6112Q27.8122-11.3426 32.8743-11.1473Q37.9364-10.952 43.1278-10.8318Q48.3192-10.7117 52.8839-10.7117ZM52.8839-12.8754Q48.3574-12.8754 43.1923-12.973Q38.0272-13.0707 33.0013-13.266Q27.9755-13.4613 23.7461-13.7283Q19.5168-13.9954 16.9113-14.3303Q14.2464-14.6263 13.0669-15.7825Q11.8874-16.9388 11.8874-19.223L11.8874-25.8316Q11.8874-29.9194 12.7598-32.5565Q13.6322-35.1936 16.053-38.3438L19.6938-43.1564Q20.3636-46.5652 21.3333-49.9241Q22.303-53.2829 23.2601-55.9856Q24.2172-58.6884 24.8657-60.0891Q26.017-62.4023 28.1136-63.8241Q30.2101-65.2458 33.2039-65.5838Q34.9686-65.8249 40.4793-65.9782Q45.99-66.1316 52.8839-66.1316Q59.7778-66.1316 65.2695-65.9782Q70.7611-65.8249 72.5121-65.5838Q75.5569-65.242 77.652-63.8206Q79.747-62.3993 80.8563-60.0891Q81.5536-58.6884 82.5092-55.9856Q83.4648-53.2829 84.4345-49.9241Q85.4042-46.5652 86.0291-43.1564L89.7118-38.3438Q92.1356-35.1936 92.9852-32.5565Q93.8347-29.9194 93.8347-25.8316L93.8347-19.223Q93.8347-16.9388 92.6781-15.781Q91.5215-14.6233 88.8565-14.3303Q86.2053-14.0404 81.9988-13.7737Q77.7924-13.5071 72.7646-13.2908Q67.7368-13.0745 62.5717-12.9749Q57.4066-12.8754 52.8839-12.8754ZM16.4368-0.926208L20.6635-0.926208Q22.6341-0.926208 23.9868-2.27737Q25.3395-3.62854 25.3395-5.5954L25.3395-12.6228L11.7188-14.3661L11.7188-5.5954Q11.7188-3.67432 13.0718-2.30026Q14.4249-0.926208 16.4368-0.926208ZM85.1044-0.926208L89.3272-0.926208Q91.2971-0.926208 92.6502-2.27737Q94.0033-3.62854 94.0033-5.5954L94.0033-14.3661L80.3825-12.6228L80.3825-5.5954Q80.3825-3.62854 81.7356-2.27737Q83.0887-0.926208 85.1044-0.926208Z"/>
  </g>
 </g>
</svg>
